<svg xmlns="http://www.w3.org/2000/svg" viewBox="0 0 800 500" font-family="Segoe UI, system-ui, sans-serif" font-size="11">
  <defs>
    <style>
      .frame { fill: #fafafa; stroke: #888; stroke-width: 1; }
      .chrome { fill: #ececec; stroke: #888; stroke-width: 1; }
      .panel { fill: #ffffff; stroke: #ccc; stroke-width: 1; }
      .active-tab { fill: #ffffff; stroke: #888; stroke-width: 1; }
      .inactive-tab { fill: #d8d8d8; stroke: #888; stroke-width: 1; }
      .splitter { fill: #d4d4d4; }
      .content { fill: #ffffff; stroke: #ccc; stroke-width: 1; }
      .text-line { stroke: #555; stroke-width: 1.5; stroke-linecap: round; }
      .tree-line { stroke: #555; stroke-width: 1; stroke-linecap: round; }
      .label { fill: #222; font-weight: 600; }
      .muted { fill: #777; font-size: 10px; }
      .h1 { fill: #555; font-size: 10px; }
    </style>
  </defs>

  <!-- window frame -->
  <rect class="frame" x="10" y="10" width="780" height="480" rx="6"/>
  <rect class="chrome" x="10" y="10" width="780" height="28" rx="6"/>
  <text class="label" x="22" y="28">MarkdownViewer — current (tabs)</text>

  <!-- breadcrumb strip -->
  <text class="muted" x="270" y="56">sample / welcome.md</text>

  <!-- sidebar -->
  <rect class="panel" x="10" y="38" width="240" height="452"/>

  <!-- tab strip -->
  <rect class="active-tab" x="14" y="44" width="68" height="22"/>
  <text class="label" x="28" y="60">Folder</text>
  <rect class="inactive-tab" x="84" y="44" width="68" height="22"/>
  <text class="muted" x="98" y="60" font-size="11">Outline</text>

  <!-- folder tree contents -->
  <text class="muted" x="20" y="88">📁 sample</text>
  <text class="muted" x="36" y="106">📄 welcome.md</text>
  <text class="muted" x="36" y="124">📄 cheatsheet.md</text>
  <text class="muted" x="36" y="142">📄 notes.md</text>
  <text class="muted" x="36" y="160">📁 subfolder</text>
  <text class="muted" x="52" y="178">📄 deep.md</text>
  <text class="muted" x="36" y="196">📄 report.html</text>
  <text class="muted" x="36" y="214">📄 report.pdf</text>

  <!-- footer buttons -->
  <rect class="chrome" x="14" y="456" width="232" height="30" rx="3"/>
  <text class="muted" x="22" y="474">📁 Open ▾</text>
  <text class="muted" x="226" y="474" text-anchor="end">⚙</text>

  <!-- splitter -->
  <rect class="splitter" x="250" y="38" width="4" height="452"/>

  <!-- content -->
  <rect class="content" x="254" y="38" width="536" height="452"/>
  <line class="text-line" x1="290" y1="78" x2="500" y2="78"/>
  <line class="text-line" x1="290" y1="98" x2="740" y2="98"/>
  <line class="text-line" x1="290" y1="118" x2="730" y2="118"/>
  <line class="text-line" x1="290" y1="138" x2="680" y2="138"/>
  <line class="text-line" x1="290" y1="170" x2="540" y2="170"/>
  <line class="text-line" x1="290" y1="190" x2="730" y2="190"/>
  <line class="text-line" x1="290" y1="210" x2="710" y2="210"/>
  <line class="text-line" x1="290" y1="230" x2="640" y2="230"/>

  <!-- caption -->
  <text class="muted" x="400" y="470" text-anchor="middle">
    Two tabs in the sidebar — only one of Folder / Outline visible at a time.
  </text>
</svg>
