<svg xmlns="http://www.w3.org/2000/svg" viewBox="0 0 800 500" font-family="Segoe UI, system-ui, sans-serif" font-size="11">
  <defs>
    <style>
      .frame { fill: #fafafa; stroke: #888; stroke-width: 1; }
      .chrome { fill: #ececec; stroke: #888; stroke-width: 1; }
      .panel { fill: #ffffff; stroke: #ccc; stroke-width: 1; }
      .acc-hdr { fill: #e8e8e8; stroke: #ccc; stroke-width: 1; }
      .splitter { fill: #d4d4d4; }
      .content { fill: #ffffff; stroke: #ccc; stroke-width: 1; }
      .text-line { stroke: #555; stroke-width: 1.5; stroke-linecap: round; }
      .label { fill: #222; font-weight: 600; }
      .muted { fill: #777; font-size: 10px; }
      .accent { fill: #0067c0; font-weight: 600; }
      .chevron { fill: #555; font-size: 10px; font-family: monospace; }
    </style>
  </defs>

  <rect class="frame" x="10" y="10" width="780" height="480" rx="6"/>
  <rect class="chrome" x="10" y="10" width="780" height="28" rx="6"/>
  <text class="label" x="22" y="28">MarkdownViewer — option 3: accordion (collapsible sections)</text>

  <text class="muted" x="270" y="56">sample / welcome.md</text>

  <!-- sidebar -->
  <rect class="panel" x="10" y="38" width="240" height="452"/>

  <!-- Folder section header (open) -->
  <rect class="acc-hdr" x="14" y="44" width="232" height="24"/>
  <text class="chevron" x="22" y="60">▼</text>
  <text class="label" x="36" y="60" font-size="10">FOLDER</text>

  <text class="muted" x="20" y="86">📁 sample</text>
  <text class="muted" x="36" y="104">📄 welcome.md</text>
  <text class="muted" x="36" y="122">📄 cheatsheet.md</text>
  <text class="muted" x="36" y="140">📄 notes.md</text>
  <text class="muted" x="36" y="158">📁 subfolder</text>
  <text class="muted" x="52" y="176">📄 deep.md</text>
  <text class="muted" x="36" y="194">📄 report.html</text>
  <text class="muted" x="36" y="212">📄 report.pdf</text>

  <!-- Outline section header (open) -->
  <rect class="acc-hdr" x="14" y="232" width="232" height="24"/>
  <text class="chevron" x="22" y="248">▼</text>
  <text class="label" x="36" y="248" font-size="10">OUTLINE</text>

  <text class="accent" x="20" y="274">H1 Welcome</text>
  <text class="muted" x="36" y="292">H2 Headings and paragraphs</text>
  <text class="muted" x="36" y="310">H2 Lists</text>
  <text class="muted" x="52" y="328">H3 Task list</text>
  <text class="muted" x="36" y="346">H2 Code</text>
  <text class="muted" x="36" y="364">H2 Tables</text>
  <text class="muted" x="36" y="382">H2 Mermaid</text>
  <text class="muted" x="36" y="400">H2 Footnotes</text>

  <rect class="chrome" x="14" y="456" width="232" height="30" rx="3"/>
  <text class="muted" x="22" y="474">📁 Open ▾</text>
  <text class="muted" x="226" y="474" text-anchor="end">⚙</text>

  <rect class="splitter" x="250" y="38" width="4" height="452"/>

  <!-- content -->
  <rect class="content" x="254" y="38" width="536" height="452"/>
  <line class="text-line" x1="290" y1="78" x2="500" y2="78"/>
  <line class="text-line" x1="290" y1="98" x2="740" y2="98"/>
  <line class="text-line" x1="290" y1="118" x2="730" y2="118"/>
  <line class="text-line" x1="290" y1="138" x2="680" y2="138"/>
  <line class="text-line" x1="290" y1="170" x2="540" y2="170"/>
  <line class="text-line" x1="290" y1="190" x2="730" y2="190"/>
  <line class="text-line" x1="290" y1="210" x2="710" y2="210"/>
  <line class="text-line" x1="290" y1="230" x2="640" y2="230"/>

  <text class="muted" x="522" y="478" text-anchor="middle">
    Both sections always present; click a header to collapse just that one.
  </text>
</svg>
